{
  "asset": {
    "generator": "Khronos glTF Blender I/O v4.0.44",
    "version": "2.0"
  },
  "extensionsUsed": [
    "KHR_materials_transmission",
    "KHR_materials_specular",
    "KHR_materials_ior"
  ],
  "scene": 0,
  "scenes": [
    {
      "name": "Scene",
      "nodes": [0]
    }
  ],
  "nodes": [
    {
      "mesh": 0,
      "name": "CrystalOne_LP"
    }
  ],
  "materials": [
    {
      "doubleSided": true,
      "extensions": {
        "KHR_materials_transmission": {
          "transmissionFactor": 1
        },
        "KHR_materials_specular": {
          "specularFactor": 0
        },
        "KHR_materials_ior": {
          "ior": 1.399999976158142
        }
      },
      "name": "Material #1",
      "pbrMetallicRoughness": {
        "baseColorFactor": [
          0.5879999995231628, 0.5879999995231628, 0.5879999995231628, 1
        ],
        "metallicFactor": 0,
        "roughnessFactor": 0
      }
    }
  ],
  "meshes": [
    {
      "name": "Mesh",
      "primitives": [
        {
          "attributes": {
            "POSITION": 0,
            "NORMAL": 1,
            "TEXCOORD_0": 2
          },
          "indices": 3,
          "material": 0
        }
      ]
    }
  ],
  "accessors": [
    {
      "bufferView": 0,
      "componentType": 5126,
      "count": 20498,
      "max": [17.99690818786621, 44.519264221191406, 28.076927185058594],
      "min": [-10.303619384765625, -2.9664080142974854, -11.101243019104004],
      "type": "VEC3"
    },
    {
      "bufferView": 1,
      "componentType": 5126,
      "count": 20498,
      "type": "VEC3"
    },
    {
      "bufferView": 2,
      "componentType": 5126,
      "count": 20498,
      "type": "VEC2"
    },
    {
      "bufferView": 3,
      "componentType": 5123,
      "count": 31647,
      "type": "SCALAR"
    }
  ],
  "bufferViews": [
    {
      "buffer": 0,
      "byteLength": 245976,
      "byteOffset": 0,
      "target": 34962
    },
    {
      "buffer": 0,
      "byteLength": 245976,
      "byteOffset": 245976,
      "target": 34962
    },
    {
      "buffer": 0,
      "byteLength": 163984,
      "byteOffset": 491952,
      "target": 34962
    },
    {
      "buffer": 0,
      "byteLength": 63294,
      "byteOffset": 655936,
      "target": 34963
    }
  ],
  "buffers": [
    {
      "byteLength": 719232,
      "uri": "Crystal.bin"
    }
  ]
}
